REM DISCID CF0DD40E
REM COMMENT "ExactAudioCopy v0.99pb5"
CATALOG 4988003435950
PERFORMER ""
TITLE "DISC1"
FILE "DISC1.wav" WAVE
  TRACK 01 AUDIO
    TITLE "みなうた"
    PERFORMER "みなみけのみなさん"
    ISRC JPKI01312322
    INDEX 01 00:00:00
  TRACK 02 AUDIO
    TITLE "ハルカゼ"
    PERFORMER "南春香"
    ISRC JPKI01312323
    INDEX 00 08:25:24
    INDEX 01 08:27:44
  TRACK 03 AUDIO
    TITLE "Non Stop 全力宣言"
    PERFORMER "南夏奈"
    ISRC JPKI01312324
    INDEX 00 12:40:50
    INDEX 01 12:41:70
  TRACK 04 AUDIO
    TITLE "大好きとバカやろう"
    PERFORMER "南千秋"
    ISRC JPKI01312325
    INDEX 00 15:56:45
    INDEX 01 15:57:65
  TRACK 05 AUDIO
    TITLE "爽快Shooting"
    PERFORMER "南冬馬"
    ISRC JPKI01312326
    INDEX 00 20:00:26
    INDEX 01 20:02:46
  TRACK 06 AUDIO
    TITLE "ワイルド×ファンタジスタ"
    PERFORMER "マコト"
    ISRC JPKI01312327
    INDEX 00 24:27:47
    INDEX 01 24:29:67
  TRACK 07 AUDIO
    TITLE "One two Skipで恋したい"
    PERFORMER "内田"
    ISRC JPKI01312328
    INDEX 00 28:51:62
    INDEX 01 28:53:45
  TRACK 08 AUDIO
    TITLE "ベストフレンズ"
    PERFORMER "吉野"
    ISRC JPKI01312329
    INDEX 00 33:01:09
    INDEX 01 33:03:29
  TRACK 09 AUDIO
    TITLE "プレーンな毎日"
    PERFORMER "シュウイチ"
    ISRC JPKI01312330
    INDEX 00 36:43:26
    INDEX 01 36:45:46
  TRACK 10 AUDIO
    TITLE "夏色恋風"
    PERFORMER "藤岡"
    ISRC JPKI01312331
    INDEX 00 39:22:74
    INDEX 01 39:25:19
  TRACK 11 AUDIO
    TITLE "そういうお約束･･･？"
    PERFORMER "ケイコ"
    ISRC JPKI01312332
    INDEX 00 43:30:22
    INDEX 01 43:32:42
  TRACK 12 AUDIO
    TITLE "Sweet Step"
    PERFORMER "リコ"
    ISRC JPKI01312333
    INDEX 00 47:56:74
    INDEX 01 47:59:19
  TRACK 13 AUDIO
    TITLE "教えて∞"
    PERFORMER "ミユキ"
    ISRC JPKI01312334
    INDEX 00 52:13:61
    INDEX 01 52:15:43
  TRACK 14 AUDIO
    TITLE "毎日スパイラル"
    PERFORMER "南アキラ"
    ISRC JPKI01312335
    INDEX 00 55:53:33
    INDEX 01 55:55:53
